<?xml version="1.0" encoding="utf-8"?>
<!-- Generator: Adobe Illustrator 27.5.0, SVG Export Plug-In . SVG Version: 6.00 Build 0)  -->
<svg version="1.1" xmlns="http://www.w3.org/2000/svg" xmlns:xlink="http://www.w3.org/1999/xlink" x="0px" y="0px"
	 viewBox="0 0 750 500" style="enable-background:new 0 0 750 500;" xml:space="preserve">
<g id="BACKGROUND">
	<rect style="fill:#FFFFFF;" width="750" height="500"/>
</g>
<g id="OBJECTS">
	<path style="fill:#EBF3FF;" d="M698.98,296.022v2.906c0,7.136-2.774,13.665-7.367,18.724c3.333,4.621,5.28,10.178,5.28,16.156
		v31.974H379.173c-10.084,0-18.259,7.591-18.259,16.955c0,9.363,8.175,16.955,18.259,16.955h317.721v21.314
		c0,16.054-14.015,29.067-31.302,29.067H368.218h-22.956H82.323c-13.976,0-25.809-8.506-29.831-20.247H183.3
		c8.5,0,15.391-6.785,15.391-15.158c0-8.37-6.891-15.156-15.391-15.156H51.02v-49.233c0-12.417,8.389-23.009,20.189-27.173
		c-8.397-5.213-13.928-14.095-13.928-24.178v-2.906c0-5.298,1.539-10.256,4.206-14.533H274.31c4.035,0,7.305-3.035,7.305-6.781
		c0-3.748-3.27-6.783-7.305-6.783H66.254c-5.544-5.242-8.973-12.417-8.973-20.344V194.29c0-16.053,14.014-29.067,31.302-29.067h3.37
		c-11.733-4.195-20.065-14.754-20.065-27.129v-3.874c0-16.052,14.015-29.067,31.303-29.067h54.648
		c-0.93-2.752-1.435-5.681-1.435-8.719V85.775c0-16.052,14.015-29.067,31.303-29.067h257.457c5.438-4.231,12.442-6.781,20.091-6.781
		h91.817c17.288,0,31.303,13.014,31.303,29.066v5.163c0,8.258-3.714,15.705-9.669,20.996h77.495
		c17.286,0,31.302,13.015,31.302,29.067v3.874c0,10.776-6.322,20.173-15.704,25.192H497.08c-5.475,0-9.912,4.121-9.912,9.205
		c0,5.083,4.438,9.204,9.912,9.204h197.768c1.978,3.809,3.089,8.081,3.089,12.596v53.289c0,9.907-5.343,18.653-13.497,23.9
		C693.177,276.636,698.98,285.696,698.98,296.022z"/>
	<g>
		<g>
			<path style="fill:#2D4C7F;" d="M201.814,281.028v30.212h12.159v-11.399c0-3.988,3.232-7.221,7.219-7.221
				c3.988,0,7.221,3.232,7.221,7.221v11.399h12.16v-30.212H201.814z"/>
			<rect x="162.102" y="309.342" style="fill:#4E73A8;" width="118.182" height="7.978"/>
			<rect x="201.814" y="281.028" style="opacity:0.2;fill:#2D4C7F;" width="38.669" height="7.316"/>
		</g>
		<g>
			<rect x="82.553" y="114.876" style="fill:#4E73A8;" width="277.28" height="145.756"/>
			<g>
				<rect x="91.272" y="120.325" style="fill:#B8D0FF;" width="259.841" height="134.024"/>
				<path style="opacity:0.5;fill:#B8D0FF;" d="M332.276,253.56c-10.295-2.482-20.117-6.489-29.705-10.933
					c-9.62-4.457-19.279-8.93-28.751-13.691c-50.81-25.538-95.973-63.597-130.93-108.611H91.272V254.35h244.515
					C334.615,254.101,333.442,253.84,332.276,253.56z"/>
			</g>
			<rect x="91.102" y="254.35" style="fill:#2D4C7F;" width="260.182" height="2.449"/>
			<path style="fill:#2D4C7F;" d="M82.533,260.569v10.686c0,6.74,5.408,12.203,12.079,12.203h253.156
				c6.676,0,12.084-5.463,12.084-12.203v-10.686H82.533z"/>
			<path style="fill:#4E73A8;" d="M225.383,271.236c0,2.314-1.876,4.19-4.189,4.19c-2.314,0-4.191-1.876-4.191-4.19
				c0-2.314,1.876-4.19,4.191-4.19C223.507,267.046,225.383,268.922,225.383,271.236z"/>
		</g>
	</g>
	<g>
		<g>
			<g>
				<line style="fill:none;stroke:#2E6ADB;stroke-miterlimit:10;" x1="353.392" y1="193.747" x2="354.892" y2="193.747"/>
				<path style="fill:none;stroke:#2E6ADB;stroke-miterlimit:10;stroke-dasharray:2.978,2.978;" d="M357.87,193.747h202.763
					c19.183,0,34.732,15.551,34.732,34.733v110.473"/>
				<line style="fill:none;stroke:#2E6ADB;stroke-miterlimit:10;" x1="595.365" y1="340.442" x2="595.365" y2="341.942"/>
			</g>
		</g>
		<g>
			<g>
				<line style="fill:none;stroke:#2E6ADB;stroke-miterlimit:10;" x1="350.392" y1="246.244" x2="351.892" y2="246.244"/>
				<path style="fill:none;stroke:#2E6ADB;stroke-miterlimit:10;stroke-dasharray:3.0099,3.0099;" d="M354.902,246.244h148.706
					c14.182,0,25.678,7.405,25.678,16.54v51.023"/>
				<line style="fill:none;stroke:#2E6ADB;stroke-miterlimit:10;" x1="529.286" y1="315.313" x2="529.286" y2="316.813"/>
			</g>
		</g>
		<g>
			<path style="fill:#4E73A8;" d="M671.574,421.313V291.247c0-6.962-5.649-12.605-12.611-12.605H446.814
				c-6.967,0-12.613,5.644-12.613,12.605v130.065H671.574z"/>
			<g>
				<path style="fill:#B8D0FF;" d="M661.931,420.86V298.605c0-6.4-5.186-11.586-11.585-11.586H455.426
					c-6.398,0-11.587,5.186-11.587,11.586V420.86H661.931z"/>
				<path style="opacity:0.5;fill:#B8D0FF;" d="M650.346,287.02H455.426c-2.365,0-4.565,0.711-6.398,1.931l212.902,131.012V298.605
					C661.931,292.205,656.745,287.02,650.346,287.02z"/>
			</g>
			<g>
				<path style="fill:#4E73A8;" d="M412.823,418.918v10.685c0,6.74,5.464,12.202,12.203,12.202h255.719
					c6.744,0,12.207-5.462,12.207-12.202v-10.685H412.823z"/>
				<path style="fill:#2D4C7F;" d="M689.086,418.918v2.663c0,6.522-5.29,11.81-11.814,11.81H429.795
					c-6.523,0-11.812-5.287-11.812-11.81v-2.663h-4.514v10.685c0,6.74,5.464,12.202,12.205,12.202h255.716
					c6.745,0,12.207-5.462,12.207-12.202v-10.685H689.086z"/>
			</g>
		</g>
		
			<line style="fill:none;stroke:#2E6ADB;stroke-miterlimit:10;stroke-dasharray:3,3;" x1="360.523" y1="354.522" x2="440.335" y2="354.522"/>
	</g>
	<g>
		<rect x="233.626" y="151.59" style="fill:#CAE0FF;" width="105.552" height="65.355"/>
		<polygon style="fill:#E1EDFF;" points="233.626,216.945 285.664,151.59 233.626,151.59 		"/>
		<polygon style="fill:#E1EDFF;" points="339.178,216.945 339.178,151.59 285.664,151.59 		"/>
		<polygon style="fill:#FFFFFF;" points="233.626,151.59 286.402,191.44 339.178,151.59 		"/>
		
			<line style="fill:none;stroke:#26395E;stroke-width:0.5;stroke-miterlimit:10;" x1="233.626" y1="216.945" x2="265.758" y2="177.455"/>
		
			<line style="fill:none;stroke:#26395E;stroke-width:0.5;stroke-miterlimit:10;" x1="306.649" y1="177.968" x2="339.178" y2="216.945"/>
	</g>
	<g>
		<path style="fill:#9EC0FF;" d="M542.005,401.778c0,2.842-1.513,4.079-4.196,4.079H426.54c-2.682,0-5.257-1.237-5.257-4.079
			v-75.893c0-2.841,2.575-5.062,5.257-5.062h111.269c2.684,0,4.196,2.221,4.196,5.062V401.778z"/>
		<g>
			<g>
				<rect x="425.744" y="336.834" style="fill:#FFFFFF;" width="19.42" height="18.895"/>
				<rect x="448.838" y="336.834" style="fill:#2E6ADB;" width="19.419" height="18.895"/>
				<rect x="471.408" y="336.834" style="fill:#FFFFFF;" width="19.422" height="18.895"/>
				<rect x="494.501" y="336.834" style="fill:#FFFFFF;" width="19.422" height="18.895"/>
				<rect x="517.6" y="336.834" style="fill:#9EC0FF;" width="19.418" height="18.895"/>
			</g>
			<g>
				<rect x="425.744" y="358.88" style="fill:#FFFFFF;" width="19.42" height="18.895"/>
				<rect x="471.408" y="358.88" style="fill:#FFFFFF;" width="19.422" height="18.895"/>
				<rect x="448.315" y="358.88" style="fill:#FFFFFF;" width="19.42" height="18.895"/>
				<rect x="494.501" y="358.88" style="fill:#FFFFFF;" width="19.422" height="18.895"/>
				<rect x="517.6" y="358.88" style="fill:#FFFFFF;" width="19.418" height="18.895"/>
			</g>
			<g>
				<rect x="425.744" y="381.45" style="fill:#5D81EC;" width="19.42" height="18.896"/>
				<rect x="471.935" y="381.45" style="fill:#FFFFFF;" width="19.421" height="18.896"/>
				<rect x="448.838" y="381.45" style="fill:#FFFFFF;" width="19.419" height="18.896"/>
				<rect x="494.501" y="381.45" style="fill:#FFBF00;" width="19.422" height="18.896"/>
				<rect x="517.6" y="381.45" style="fill:#FFFFFF;" width="19.418" height="18.896"/>
			</g>
		</g>
		<path style="fill:#FFBF00;" d="M542.005,331.848v-5.396c0-4.506-3.601-7.726-8.107-7.726H429.495c-4.504,0-8.213,3.22-8.213,7.726
			v5.396H542.005z"/>
	</g>
	<g>
		<g>
			<rect x="379.211" y="117.71" style="fill:#C1D7F8;" width="8.714" height="18.236"/>
			<rect x="392.281" y="108.327" style="fill:#C1D7F8;" width="8.987" height="27.619"/>
			<rect x="407.529" y="101.774" style="fill:#C1D7F8;" width="9.804" height="34.172"/>
			<rect x="423.869" y="96.463" style="fill:#C1D7F8;" width="11.981" height="39.483"/>
		</g>
		<rect x="372.777" y="133.472" style="fill:#C1D7F8;" width="68.087" height="3.694"/>
	</g>
	<g>
		<polygon style="fill:#5D81EC;" points="532.836,201.053 532.836,214.67 546.077,208.385 		"/>
		<polygon style="fill:#5D81EC;" points="547.181,201.053 547.181,214.67 560.421,208.385 		"/>
	</g>
	<g>
		<polygon style="fill:#5D81EC;" points="267.672,396.237 281.29,396.237 275.004,379.478 		"/>
		<polygon style="fill:#5D81EC;" points="267.672,378.081 281.29,378.081 275.004,361.321 		"/>
	</g>
	<path style="fill:#FFBF00;" d="M662.593,236.194v-5.276c0-1.226-0.991-2.217-2.216-2.217h-1.644c-1.047,0-1.975-0.658-2.313-1.644
		c-0.263-0.756-0.567-1.481-0.909-2.189c-0.457-0.934-0.264-2.063,0.475-2.804l1.157-1.162c0.868-0.861,0.868-2.27,0-3.132
		l-3.723-3.73c-0.868-0.864-2.273-0.864-3.135,0l-1.164,1.161c-0.733,0.746-1.864,0.931-2.808,0.477
		c-0.698-0.346-1.435-0.649-2.19-0.913c-0.974-0.337-1.637-1.27-1.637-2.313v-1.639c0-1.224-0.992-2.216-2.217-2.216h-5.272
		c-1.224,0-2.217,0.992-2.217,2.216v1.639c0,1.044-0.663,1.977-1.647,2.313c-0.748,0.264-1.476,0.567-2.181,0.913
		c-0.938,0.453-2.065,0.269-2.812-0.477l-1.155-1.161c-0.866-0.864-2.27-0.864-3.13,0l-3.733,3.73c-0.863,0.861-0.863,2.271,0,3.132
		l1.162,1.162c0.739,0.74,0.934,1.87,0.478,2.804c-0.346,0.708-0.65,1.434-0.908,2.189c-0.343,0.985-1.273,1.644-2.319,1.644h-1.642
		c-1.22,0-2.211,0.991-2.211,2.217v5.276c0,1.221,0.991,2.208,2.211,2.208h1.642c1.046,0,1.977,0.661,2.319,1.646
		c0.258,0.748,0.563,1.478,0.908,2.186c0.456,0.943,0.262,2.068-0.478,2.808l-1.162,1.156c-0.863,0.868-0.863,2.273,0,3.132
		l3.733,3.735c0.86,0.861,2.264,0.861,3.13,0l1.155-1.162c0.747-0.735,1.874-0.931,2.812-0.479c0.705,0.35,1.433,0.65,2.181,0.911
		c0.984,0.342,1.647,1.274,1.647,2.314v1.643c0,1.221,0.993,2.215,2.217,2.215h5.272c1.225,0,2.217-0.994,2.217-2.215v-1.643
		c0-1.04,0.663-1.973,1.637-2.314c0.755-0.261,1.491-0.562,2.19-0.911c0.943-0.452,2.074-0.257,2.808,0.479l1.164,1.162
		c0.862,0.861,2.267,0.861,3.135,0l3.723-3.735c0.868-0.859,0.868-2.264,0-3.132l-1.157-1.156c-0.738-0.739-0.932-1.864-0.475-2.808
		c0.342-0.708,0.646-1.438,0.909-2.186c0.338-0.985,1.266-1.646,2.313-1.646h1.644C661.602,238.402,662.593,237.415,662.593,236.194
		z M638.608,245.53c-7.402,0.589-13.532-5.551-12.948-12.951c0.454-5.827,5.179-10.548,11.005-11.004
		c7.396-0.582,13.529,5.545,12.947,12.949C649.154,240.349,644.435,245.069,638.608,245.53z"/>
	<g>
		<path style="fill:#5D81EC;" d="M639.03,99.722c1.544-1.881,1.407-5.928,0.785-8.11c-2.078-7.315-5.921-10.588-14.423-11.07
			c-0.712-12.412-17.943-22.346-39.108-22.346c-21.323,0-38.653,10.083-39.122,22.624c-0.448-0.036-0.895-0.071-1.352-0.071
			c-9.203,0-16.662,7.117-16.662,15.901c0,1.201,0.145,2.37,0.409,3.497c-0.138-0.002-0.272-0.01-0.409-0.01
			c-0.428,0-0.849,0.015-1.269,0.039h-0.929c-0.726,0-1.431,0.136-2.113,0.386c-9.576,1.915-16.772,10.074-16.772,19.848
			c0,11.196,7.096,20.009,24.464,20.011h107.206c9.339,0,15.509-11.931,15.509-20.426
			C655.243,109.538,648.161,100.929,639.03,99.722z"/>
		<g>
			<g>
				<path style="fill:#FFFFFF;" d="M569.355,102.591c0,4.686,2.438,8.807,6.11,11.172l-3.706,2.813
					c-4.164-3.25-6.847-8.31-6.847-13.984c0-5.396,2.426-10.234,6.241-13.489l3.955,2.555
					C571.639,94.055,569.355,98.061,569.355,102.591z"/>
				<path style="fill:#FFFFFF;" d="M547.888,102.595c0,9.517,3.852,18.152,10.073,24.436l3.578-2.713
					c-5.672-5.509-9.211-13.21-9.211-21.723c0-7.896,3.038-15.091,7.998-20.487l-3.771-2.438
					C551.166,85.792,547.888,93.814,547.888,102.595z"/>
				<path style="fill:#FFFFFF;" d="M564.896,121.772l3.608-2.734c-4.629-3.982-7.567-9.877-7.567-16.447
					c0-6.182,2.601-11.763,6.765-15.721l-3.819-2.467c-4.568,4.709-7.391,11.124-7.391,18.188
					C556.492,110.165,559.733,116.994,564.896,121.772z"/>
			</g>
			<g>
				<path style="fill:#FFFFFF;" d="M588.2,91.656l3.954-2.555c3.815,3.255,6.242,8.094,6.242,13.489
					c0,5.675-2.684,10.734-6.848,13.984l-3.706-2.813c3.671-2.365,6.11-6.486,6.11-11.172
					C593.953,98.061,591.673,94.055,588.2,91.656z"/>
				<path style="fill:#FFFFFF;" d="M606.756,79.669l-3.773,2.438c4.958,5.396,7.996,12.592,7.996,20.487
					c0,8.513-3.538,16.214-9.212,21.723l3.58,2.713c6.223-6.283,10.072-14.919,10.072-24.436
					C615.42,93.814,612.143,85.792,606.756,79.669z"/>
				<path style="fill:#FFFFFF;" d="M606.815,102.591c0-7.063-2.819-13.479-7.391-18.188l-3.819,2.467
					c4.165,3.958,6.768,9.539,6.768,15.721c0,6.57-2.94,12.465-7.568,16.447l3.608,2.734
					C603.577,116.994,606.815,110.165,606.815,102.591z"/>
			</g>
			<path style="fill:#FFFFFF;" d="M574.171,103.351c0,3.516,2.852,6.366,6.364,6.366c3.517,0,6.369-2.851,6.369-6.366
				c0-3.518-2.852-6.366-6.369-6.366C577.023,96.984,574.171,99.833,574.171,103.351z"/>
		</g>
	</g>
	<g>
		<g>
			<g>
				<line style="fill:none;stroke:#2E6ADB;stroke-miterlimit:10;" x1="316.729" y1="408.459" x2="315.229" y2="408.459"/>
				<path style="fill:none;stroke:#2E6ADB;stroke-miterlimit:10;stroke-dasharray:2.9779,2.9779;" d="M312.251,408.459H129.227
					c-17.356,0-31.425-14.07-31.425-31.426v-99.665"/>
				<line style="fill:none;stroke:#2E6ADB;stroke-miterlimit:10;" x1="97.801" y1="275.879" x2="97.801" y2="274.379"/>
			</g>
		</g>
		<g>
			<g>
				<rect x="287.861" y="328.623" style="fill:#4E73A8;" width="69.825" height="110.908"/>
				<rect x="287.861" y="432.024" style="fill:#2D4C7F;" width="69.825" height="9.781"/>
				<g>
					<path style="fill:#2D4C7F;" d="M352.178,419.696c0,4.431-3.589,8.019-8.019,8.019h-42.768c-4.429,0-8.022-3.588-8.022-8.019
						l0,0c0-4.43,3.593-8.019,8.022-8.019h42.768C348.589,411.678,352.178,415.267,352.178,419.696L352.178,419.696z"/>
					<rect x="298.493" y="414.587" style="fill:#5D81EC;" width="49.046" height="10.22"/>
					<g>
						<rect x="324.046" y="416.757" style="fill:#FFFFFF;" width="2.937" height="2.938"/>
						<rect x="328.435" y="416.757" style="fill:#FFBF00;" width="2.934" height="2.938"/>
						<rect x="332.981" y="416.757" style="fill:#FFFFFF;" width="2.937" height="2.938"/>
						<rect x="341.445" y="416.757" style="fill:#FFBF00;" width="2.937" height="2.938"/>
					</g>
				</g>
				<g>
					<path style="fill:#2D4C7F;" d="M352.178,399.803c0,4.432-3.589,8.021-8.019,8.021h-42.768c-4.429,0-8.022-3.59-8.022-8.021l0,0
						c0-4.428,3.593-8.017,8.022-8.017h42.768C348.589,391.786,352.178,395.375,352.178,399.803L352.178,399.803z"/>
					<rect x="298.493" y="394.694" style="fill:#5D81EC;" width="49.046" height="10.221"/>
					<g>
						<rect x="324.046" y="396.867" style="fill:#FFBF00;" width="2.937" height="2.935"/>
						<rect x="319.567" y="396.867" style="fill:#FFBF00;" width="2.939" height="2.935"/>
						<rect x="337.31" y="396.867" style="fill:#FFFFFF;" width="2.938" height="2.935"/>
						<rect x="332.981" y="396.867" style="fill:#FFBF00;" width="2.937" height="2.935"/>
						<rect x="341.445" y="396.867" style="fill:#FFBF00;" width="2.937" height="2.935"/>
					</g>
				</g>
				<g>
					<path style="fill:#2D4C7F;" d="M352.178,379.912c0,4.432-3.589,8.018-8.019,8.018h-42.768c-4.429,0-8.022-3.586-8.022-8.018
						l0,0c0-4.429,3.593-8.019,8.022-8.019h42.768C348.589,371.894,352.178,375.483,352.178,379.912L352.178,379.912z"/>
					<rect x="298.493" y="374.805" style="fill:#5D81EC;" width="49.046" height="10.219"/>
					<g>
						<rect x="337.31" y="376.973" style="fill:#FFBF00;" width="2.938" height="2.939"/>
						<rect x="328.435" y="376.973" style="fill:#FFBF00;" width="2.934" height="2.939"/>
						<rect x="332.981" y="376.973" style="fill:#FFFFFF;" width="2.937" height="2.939"/>
						<rect x="341.445" y="376.973" style="fill:#FFBF00;" width="2.937" height="2.939"/>
					</g>
				</g>
				<g>
					<path style="fill:#2D4C7F;" d="M352.178,360.022c0,4.431-3.589,8.018-8.019,8.018h-42.768c-4.429,0-8.022-3.588-8.022-8.018
						l0,0c0-4.43,3.593-8.02,8.022-8.02h42.768C348.589,352.002,352.178,355.593,352.178,360.022L352.178,360.022z"/>
					<rect x="298.493" y="354.914" style="fill:#5D81EC;" width="49.046" height="10.219"/>
					<g>
						<rect x="324.046" y="357.084" style="fill:#FFFFFF;" width="2.937" height="2.938"/>
						<rect x="316.017" y="357.086" style="fill:#FFBF00;" width="2.935" height="2.937"/>
						<rect x="328.435" y="357.084" style="fill:#FFBF00;" width="2.934" height="2.938"/>
						<rect x="337.31" y="357.084" style="fill:#FFFFFF;" width="2.938" height="2.938"/>
						<rect x="332.981" y="357.084" style="fill:#FFBF00;" width="2.937" height="2.938"/>
						<rect x="341.445" y="357.084" style="fill:#FFBF00;" width="2.937" height="2.938"/>
					</g>
				</g>
				<g>
					<path style="fill:#2D4C7F;" d="M352.178,340.13c0,4.43-3.589,8.02-8.019,8.02h-42.768c-4.429,0-8.022-3.59-8.022-8.02l0,0
						c0-4.43,3.593-8.021,8.022-8.021h42.768C348.589,332.109,352.178,335.7,352.178,340.13L352.178,340.13z"/>
					<rect x="298.493" y="335.022" style="fill:#5D81EC;" width="49.046" height="10.219"/>
					<g>
						<rect x="324.046" y="337.191" style="fill:#FFBF00;" width="2.937" height="2.938"/>
						<rect x="328.435" y="337.191" style="fill:#FFFFFF;" width="2.934" height="2.938"/>
						<rect x="332.981" y="337.191" style="fill:#FFBF00;" width="2.937" height="2.938"/>
						<rect x="337.31" y="337.191" style="fill:#FFBF00;" width="2.938" height="2.938"/>
						<rect x="341.445" y="337.191" style="fill:#FFBF00;" width="2.937" height="2.938"/>
					</g>
				</g>
			</g>
			<g>
				
					<line style="fill:none;stroke:#2D4C7F;stroke-width:0.5;stroke-miterlimit:10;" x1="291.479" y1="333.074" x2="291.479" y2="424.731"/>
				
					<line style="fill:none;stroke:#2D4C7F;stroke-width:0.5;stroke-miterlimit:10;" x1="354.068" y1="333.074" x2="354.068" y2="424.731"/>
			</g>
		</g>
	</g>
	<g>
		<g>
			<path style="fill:#2D4C7F;" d="M401.466,241.178c0,2.111-1.713,3.824-3.825,3.824h-12.618c-2.113,0-3.824-1.713-3.824-3.824
				v-3.441c0-2.113,1.711-3.824,3.824-3.824h12.618c2.112,0,3.825,1.711,3.825,3.824V241.178z"/>
			<path style="fill:#2D4C7F;" d="M401.466,253.606c0,2.113-1.713,3.824-3.825,3.824h-12.618c-2.113,0-3.824-1.711-3.824-3.824
				v-3.442c0-2.111,1.711-3.824,3.824-3.824h12.618c2.112,0,3.825,1.713,3.825,3.824V253.606z"/>
			<path style="fill:#2D4C7F;" d="M346.718,295.202v-79.077c0-3.916,3.186-7.104,7.104-7.104h38.841
				c3.917,0,7.103,3.188,7.103,7.104v79.077c0,3.918-3.186,7.102-7.103,7.102h-38.841
				C349.904,302.304,346.718,299.12,346.718,295.202z M353.822,211.748c-2.414,0-4.377,1.963-4.377,4.377v79.077
				c0,2.414,1.963,4.377,4.377,4.377h38.841c2.412,0,4.376-1.963,4.376-4.377v-79.077c0-2.414-1.964-4.377-4.376-4.377H353.822z"/>
		</g>
		<path style="fill:#B8D0FF;" d="M349.298,294.3c0,3.123,2.459,5.652,5.492,5.652h37.166c3.033,0,5.491-2.529,5.491-5.652v-77.831
			c0-3.121-2.458-5.65-5.491-5.65H354.79c-3.033,0-5.492,2.529-5.492,5.65V294.3z"/>
		<g>
			<rect x="355.24" y="218.935" style="fill:#E1EDFF;" width="36.267" height="3.72"/>
			<rect x="355.24" y="225.135" style="fill:#E1EDFF;" width="23.248" height="3.719"/>
			<rect x="355.24" y="276.901" style="fill:#E1EDFF;" width="33.477" height="3.719"/>
			<rect x="355.24" y="283.101" style="fill:#E1EDFF;" width="33.477" height="3.719"/>
			<rect x="355.24" y="289.61" style="fill:#E1EDFF;" width="26.967" height="3.719"/>
		</g>
		<path style="opacity:0.3;fill:#B8D0FF;" d="M396.455,293.436c-4.03-2.502-7.691-5.523-11.181-8.727
			c-7.143-6.557-12.799-15.205-17.192-23.787c-4.59-8.969-7.756-18.394-10.086-28.181c-1.226-5.149-2.305-10.331-3.479-15.492
			c-0.455-2.003-1.154-4.043-1.568-6.099c-2.126,0.778-3.65,2.861-3.65,5.317V294.3c0,3.123,2.459,5.652,5.492,5.652h37.166
			c3.033,0,5.491-2.529,5.491-5.652v-0.289C397.109,293.823,396.775,293.636,396.455,293.436z"/>
	</g>
	<g>
		<g>
			<path style="fill:#5D81EC;" d="M301.523,58.195h-92.849c-5.514,0-9.984,4.47-9.984,9.983v32.28c0,5.514,4.47,9.984,9.984,9.984
				h61.108c3.986,3.319,9.616,8.705,10.613,13.355c1.571,7.332,0.524,9.166,0.524,9.166s13.058-14.07,11.128-22.521h9.475
				c5.514,0,9.984-4.471,9.984-9.984v-32.28C311.507,62.665,307.037,58.195,301.523,58.195z"/>
			<path style="opacity:0.4;fill:#5D81EC;" d="M306.385,109.175c-3.324-4.493-7.517-8.247-12.734-10.588
				c-14.794-6.638-32.016-1.213-47.522-4.663c-17.423-3.876-38.808-16.028-39.238-35.561c-4.662,0.843-8.201,4.913-8.201,9.816
				v32.28c0,5.514,4.47,9.984,9.984,9.984h61.108c3.986,3.319,9.616,8.705,10.613,13.355c1.571,7.332,0.524,9.166,0.524,9.166
				s13.058-14.07,11.128-22.521h9.475C303.29,110.443,304.946,109.98,306.385,109.175z"/>
		</g>
		<g>
			<path style="fill:#FFFFFF;" d="M238.077,78.844c0,3.761-3.048,6.808-6.809,6.808c-3.76,0-6.809-3.048-6.809-6.808
				c0-3.76,3.048-6.809,6.809-6.809C235.028,72.035,238.077,75.084,238.077,78.844z"/>
			<path style="fill:#FFFFFF;" d="M261.908,78.844c0,3.761-3.048,6.808-6.809,6.808c-3.76,0-6.809-3.048-6.809-6.808
				c0-3.76,3.048-6.809,6.809-6.809C258.859,72.035,261.908,75.084,261.908,78.844z"/>
			<path style="fill:#FFFFFF;" d="M285.738,78.844c0,3.761-3.048,6.808-6.809,6.808c-3.761,0-6.809-3.048-6.809-6.808
				c0-3.76,3.048-6.809,6.809-6.809C282.69,72.035,285.738,75.084,285.738,78.844z"/>
		</g>
	</g>
	<g>
		<g>
			<path style="fill:#CFE3FF;" d="M685.207,418.242c0,4.056-2.158,5.819-5.992,5.819H520.396c-3.829,0-7.504-1.764-7.504-5.819
				V309.918c0-4.057,3.675-7.226,7.504-7.226h158.818c3.834,0,5.992,3.169,5.992,7.226V418.242z"/>
			<path style="fill:#5D81EC;" d="M685.207,318.426v-7.703c0-6.43-5.141-11.025-11.571-11.025H524.615
				c-6.428,0-11.723,4.596-11.723,11.025v7.703H685.207z"/>
			<rect x="523.133" y="321.729" style="fill:#2E6ADB;" width="149.684" height="47.043"/>
			<g>
				<path style="fill:#9EC0FF;" d="M547.218,338.504c2.384-0.818,4.126-3.349,4.132-6.349c0.007-3.668-2.581-6.647-5.783-6.654
					c-3.199-0.005-5.8,2.964-5.808,6.631c-0.005,3.002,1.727,5.539,4.108,6.367c-6.754,0.811-11.994,6.523-12.01,13.471
					l-0.017,9.065l27.317,0.051l0.018-9.064C559.188,345.076,553.968,339.341,547.218,338.504z"/>
				<path style="opacity:0.3;fill:#2E6ADB;" d="M543.731,338.522c-6.688,0.872-11.858,6.55-11.874,13.448l-0.017,9.065l27.317,0.051
					l0.005-3.092C549.954,355.931,545.39,347.591,543.731,338.522z"/>
			</g>
			<rect x="525.807" y="374.652" style="fill:#7FABEF;" width="146.475" height="2.673"/>
			<rect x="525.807" y="382.138" style="fill:#7FABEF;" width="34.213" height="17.106"/>
			<rect x="577.126" y="384.81" style="fill:#7FABEF;" width="93.552" height="2.672"/>
			<rect x="578.729" y="392.828" style="fill:#7FABEF;" width="91.948" height="4.277"/>
			<rect x="525.807" y="405.658" style="fill:#7FABEF;" width="145.405" height="4.276"/>
			<g>
				<rect x="527.409" y="308.186" style="fill:#FFFFFF;" width="10.157" height="2.673"/>
				<rect x="542.644" y="308.186" style="fill:#FFFFFF;" width="10.158" height="2.673"/>
				<rect x="557.881" y="308.186" style="fill:#FFFFFF;" width="10.156" height="2.673"/>
			</g>
		</g>
		
			<line style="fill:none;stroke:#26395E;stroke-width:0.5;stroke-miterlimit:10;" x1="526.992" y1="414.302" x2="664.559" y2="414.302"/>
		
			<line style="fill:none;stroke:#26395E;stroke-width:0.5;stroke-miterlimit:10;" x1="579.025" y1="400.758" x2="671.685" y2="400.758"/>
		
			<line style="fill:none;stroke:#26395E;stroke-width:0.5;stroke-miterlimit:10;" x1="578.313" y1="382.226" x2="667.408" y2="382.226"/>
	</g>
	<g>
		<path style="fill:#CFE3FF;" d="M225.226,246.815c0,3.973-2.115,5.702-5.87,5.702H63.754c-3.752,0-7.352-1.729-7.352-5.702V140.685
			c0-3.974,3.6-7.077,7.352-7.077h155.602c3.755,0,5.87,3.104,5.87,7.077V246.815z"/>
		<path style="fill:#5D81EC;" d="M225.226,149.02v-7.546c0-6.301-5.036-10.804-11.338-10.804h-146
			c-6.298,0-11.485,4.503-11.485,10.804v7.546H225.226z"/>
		<rect x="156.521" y="161.247" style="fill:#FFFFFF;" width="55.518" height="46.091"/>
		<g>
			<path style="fill:#9EC0FF;" d="M185.355,179.168c2.335-0.803,4.041-3.281,4.048-6.222c0.007-3.593-2.529-6.513-5.665-6.518
				c-3.135-0.006-5.683,2.901-5.69,6.496c-0.005,2.94,1.692,5.427,4.024,6.238c-6.617,0.794-11.752,6.392-11.766,13.197
				l-0.017,8.882l26.765,0.05l0.017-8.882C197.083,185.605,191.968,179.987,185.355,179.168z"/>
			<path style="opacity:0.3;fill:#2E6ADB;" d="M181.939,179.184c-6.553,0.855-11.619,6.418-11.633,13.177l-0.017,8.882l26.765,0.05
				l0.005-3.029C188.036,196.24,183.564,188.07,181.939,179.184z"/>
		</g>
		<g>
			<rect x="70.626" y="138.989" style="fill:#FFFFFF;" width="9.951" height="2.618"/>
			<rect x="85.552" y="138.989" style="fill:#FFFFFF;" width="9.952" height="2.618"/>
			<rect x="100.479" y="138.989" style="fill:#FFFFFF;" width="9.951" height="2.618"/>
		</g>
		<rect x="68.471" y="161.247" style="fill:#7FABEF;" width="38.758" height="76.468"/>
		<rect x="111.419" y="161.247" style="fill:#9EC0FF;" width="38.758" height="76.468"/>
		<g>
			<rect x="156.461" y="212.051" style="fill:#7FABEF;" width="56.042" height="5.164"/>
			<rect x="156.461" y="222.379" style="fill:#7FABEF;" width="43.971" height="5.532"/>
			<rect x="156.461" y="234.182" style="fill:#7FABEF;" width="53.455" height="4.057"/>
		</g>
		
			<line style="fill:none;stroke:#26395E;stroke-width:0.5;stroke-miterlimit:10;" x1="73.709" y1="164.39" x2="73.709" y2="231.43"/>
		
			<line style="fill:none;stroke:#26395E;stroke-width:0.5;stroke-miterlimit:10;" x1="115.608" y1="164.913" x2="115.608" y2="229.858"/>
		
			<line style="fill:none;stroke:#26395E;stroke-width:0.5;stroke-miterlimit:10;" x1="72.661" y1="242.953" x2="208.313" y2="242.953"/>
		
			<line style="fill:none;stroke:#26395E;stroke-width:0.5;stroke-miterlimit:10;" x1="68.471" y1="155.486" x2="209.884" y2="155.486"/>
	</g>
	<g>
		<path style="fill:#5D81EC;" d="M254.211,193.958c-2.851-4.987-8.857-8.431-15.826-8.431h-42.236v8.431v4.888v63.006h93.858
			v-67.894H254.211z"/>
		<path style="fill:#FFC800;" d="M290.915,262.265v-48.442c0-6.2-5.026-11.232-11.234-11.232h-73.209
			c-6.204,0-11.234,5.032-11.234,11.232v48.442H290.915z"/>
		<path style="opacity:0.2;fill:#FFA607;" d="M290.915,247.419c-7.395-4.883-17.331-5.585-26.545-5.794
			c-9.411-0.217-19.246-0.002-28.313-2.923c-5.93-1.909-11.051-5.103-15.655-9.295c-7.094-6.455-15.245-16.75-13.49-26.817h-0.44
			c-6.204,0-11.234,5.032-11.234,11.232v48.442h95.677V247.419z"/>
	</g>
	<g>
		<g>
			<g>
				<path style="fill:#5D81EC;" d="M409.612,189.464c-2.226,0.01-4.024,1.821-4.015,4.046l0,0c0.009,2.23,1.82,4.023,4.045,4.015
					l60.563-0.244c2.226-0.012,4.025-1.823,4.015-4.049l0,0c-0.009-2.223-1.82-4.02-4.046-4.014L409.612,189.464z"/>
				<path style="fill:#2E6ADB;" d="M459.88,200.578l-50.882,0.203c-4.023,0.017-7.294-3.232-7.311-7.252
					c-0.018-4.027,3.231-7.299,7.257-7.315l50.878-0.207L459.88,200.578z"/>
				<path style="opacity:0.3;fill:#0093CC;" d="M405.371,187.324c0.018,4.024,3.288,7.273,7.313,7.254l47.172-0.188l0.025,6.188
					l-50.882,0.203c-4.023,0.017-7.294-3.232-7.311-7.252c-0.011-2.73,1.478-5.108,3.692-6.363
					C405.376,187.219,405.37,187.27,405.371,187.324z"/>
			</g>
			<path style="fill:#FFBF00;" d="M497.064,163.902c-15.228-0.556-28.018,11.342-28.571,26.566
				c-0.555,15.228,11.344,28.018,26.57,28.57c15.225,0.554,28.018-11.341,28.566-26.569
				C524.185,177.247,512.291,164.45,497.064,163.902z"/>
			<g>
				<path style="fill:#B8D0FF;" d="M496.922,170.847c-11.363-0.41-20.908,8.465-21.318,19.825
					c-0.414,11.364,8.462,20.91,19.825,21.319c11.361,0.413,20.905-8.465,21.319-19.826
					C517.158,180.804,508.282,171.26,496.922,170.847z"/>
				<path style="opacity:0.4;fill:#7FABEF;" d="M509.746,200.773c1.647,0.061,3.269-0.01,4.85-0.196
					c-3.498,7.075-10.899,11.822-19.298,11.517c-11.417-0.413-20.34-10.007-19.924-21.423c0.211-5.859,2.844-11.054,6.892-14.675
					C482.825,189.306,494.735,200.226,509.746,200.773z"/>
			</g>
		</g>
		<path style="fill:none;stroke:#26395E;stroke-width:0.5;stroke-miterlimit:10;" d="M482.054,185.074
			c-0.915,9.8,6.274,18.472,16.075,19.386"/>
	</g>
	<g>
		<g>
			<rect x="144.106" y="380.172" style="fill:#FFBF00;" width="71.23" height="52.054"/>
			<polygon style="fill:#FFFFFF;" points="165.58,391.825 165.58,420.572 200.148,406.954 			"/>
		</g>
		<polyline style="fill:none;stroke:#26395E;stroke-width:0.5;stroke-miterlimit:10;" points="162.176,397.912 162.176,424.624 
			201.458,408.911 		"/>
	</g>
	<g>
		<g>
			<path style="fill:#2E6ADB;" d="M98.441,311.059c-8.971,5.94-19.876,9.063-32.08,10.287c3.659,26.481,15.274,43.585,32.08,54.57
				c16.808-10.985,28.421-28.089,32.081-54.57C118.323,320.121,107.415,316.999,98.441,311.059z"/>
			<path style="fill:#7FABEF;" d="M98.441,316.649c-7.425,4.916-16.45,7.499-26.55,8.515c3.027,21.913,12.641,36.068,26.55,45.159
				c13.91-9.091,23.522-23.246,26.55-45.159C114.894,324.148,105.868,321.565,98.441,316.649z"/>
			<path style="fill:#5D81EC;" d="M98.441,316.65c-7.425,4.915-16.45,7.498-26.55,8.514c3.027,21.913,12.641,36.068,26.55,45.159
				V316.65z"/>
		</g>
		<path style="fill:#FFFFFF;" d="M84.527,338.184l4.204-4.285l9.4,9.465l13.095-12.783l4.614,3.895c0,0-17.494,18.125-17.604,17.882
			C98.124,352.108,84.527,338.184,84.527,338.184z"/>
		<path style="opacity:0.5;fill:#BED1FA;" d="M98.441,343.058l-0.31,0.306l-9.4-9.465l-4.204,4.285c0,0,13.597,13.925,13.709,14.173
			c0.005,0.013,0.08-0.042,0.206-0.154V343.058z"/>
	</g>
</g>
</svg>
